<svg xmlns="http://www.w3.org/2000/svg">
    <defs>
        <symbol width="24" height="24" id="arrow" viewBox="0 0 18 10">
            <path fill-rule="evenodd" clip-rule="evenodd" d="M0.292893 0.292893C0.683417 -0.0976311 1.31658 -0.0976311 1.70711 0.292893L9 7.58579L16.2929 0.292893C16.6834 -0.0976311 17.3166 -0.0976311 17.7071 0.292893C18.0976 0.683417 18.0976 1.31658 17.7071 1.70711L9.70711 9.70711C9.31658 10.0976 8.68342 10.0976 8.29289 9.70711L0.292893 1.70711C-0.0976311 1.31658 -0.0976311 0.683417 0.292893 0.292893Z" fill="currentColor"/>
        </symbol>


        <symbol width="24" height="24" id="search" viewBox="0 0 20 20">
            <path d="M18.9422 17.8579L14.3659 13.2817C15.613 11.7564 16.2262 9.81023 16.0785 7.84561C15.9309 5.88098 15.0338 4.04825 13.5729 2.7265C12.1119 1.40475 10.1987 0.6951 8.22919 0.744345C6.25964 0.79359 4.38437 1.59796 2.99126 2.99107C1.59814 4.38419 0.793773 6.25946 0.744528 8.229C0.695283 10.1985 1.40493 12.1117 2.72668 13.5727C4.04843 15.0337 5.88117 15.9307 7.84579 16.0784C9.81041 16.226 11.7566 15.6128 13.2818 14.3657L17.8581 18.942C18.0027 19.0817 18.1964 19.1589 18.3974 19.1572C18.5984 19.1554 18.7907 19.0748 18.9328 18.9327C19.075 18.7905 19.1556 18.5982 19.1574 18.3972C19.1591 18.1962 19.0818 18.0025 18.9422 17.8579ZM8.4334 14.5666C7.22033 14.5666 6.0345 14.2069 5.02587 13.5329C4.01724 12.859 3.23111 11.9011 2.76689 10.7804C2.30267 9.65963 2.18121 8.42641 2.41786 7.23665C2.65452 6.04689 3.23867 4.95403 4.09644 4.09626C4.95421 3.23849 6.04707 2.65434 7.23683 2.41768C8.42659 2.18102 9.65981 2.30248 10.7805 2.76671C11.9013 3.23093 12.8592 4.01706 13.5331 5.02569C14.2071 6.03432 14.5668 7.22014 14.5668 8.43321C14.565 10.0593 13.9182 11.6183 12.7683 12.7682C11.6185 13.918 10.0595 14.5648 8.4334 14.5666Z" fill="#292D32"/>
        </symbol>

        <symbol width="24" height="24" id="profile" viewBox="0 0 21 23" fill="none">
            <path d="M20.2232 21.8578V19.6184C20.2232 18.4306 19.7338 17.2914 18.8628 16.4515C17.9918 15.6115 16.8104 15.1396 15.5785 15.1396H6.2892C5.05736 15.1396 3.87597 15.6115 3.00492 16.4515C2.13388 17.2914 1.64453 18.4306 1.64453 19.6184V21.8578" stroke="#292D32" stroke-width="1.5" stroke-linecap="round" stroke-linejoin="round"/>
            <path d="M10.9337 10.6607C13.4989 10.6607 15.5784 8.65548 15.5784 6.18191C15.5784 3.70835 13.4989 1.70312 10.9337 1.70312C8.36855 1.70312 6.28906 3.70835 6.28906 6.18191C6.28906 8.65548 8.36855 10.6607 10.9337 10.6607Z" stroke="#292D32" stroke-width="1.5" stroke-linecap="round" stroke-linejoin="round"/>
        </symbol>

        <symbol width="24" height="24" id="signal" viewBox="0 0 24 24" fill="none">
            <g clip-path="url(#clip0_1163_17)">
            <g clip-path="url(#clip1_1163_17)">
            <path d="M9.94939 6.94939C10.4932 6.40553 11.2309 6.1 12 6.1C12.7691 6.1 13.5068 6.40553 14.0506 6.94939C14.5945 7.49325 14.9 8.23087 14.9 9V21C14.9 21.7691 14.5945 22.5068 14.0506 23.0506C13.5068 23.5945 12.7691 23.9 12 23.9C11.2309 23.9 10.4932 23.5945 9.94939 23.0506C9.40553 22.5068 9.1 21.7691 9.1 21V9C9.1 8.23087 9.40553 7.49325 9.94939 6.94939ZM12.7778 21.7778C12.9841 21.5715 13.1 21.2917 13.1 21V9C13.1 8.70826 12.9841 8.42847 12.7778 8.22218C12.5715 8.01589 12.2917 7.9 12 7.9C11.7083 7.9 11.4285 8.01589 11.2222 8.22218C11.0159 8.42847 10.9 8.70826 10.9 9V21C10.9 21.2917 11.0159 21.5715 11.2222 21.7778C11.4285 21.9841 11.7083 22.1 12 22.1C12.2917 22.1 12.5715 21.9841 12.7778 21.7778Z" fill="#292D32" stroke="#FAFAFA" stroke-width="0.2"/>
            <path d="M18.9494 0.94939C19.4932 0.405535 20.2309 0.1 21 0.1C21.7691 0.1 22.5068 0.405535 23.0506 0.94939C23.5945 1.49325 23.9 2.23087 23.9 3V21C23.9 21.7691 23.5945 22.5068 23.0506 23.0506C22.5068 23.5945 21.7691 23.9 21 23.9C20.2309 23.9 19.4932 23.5945 18.9494 23.0506C18.4055 22.5068 18.1 21.7691 18.1 21V3C18.1 2.23087 18.4055 1.49325 18.9494 0.94939ZM21.7778 21.7778C21.9841 21.5715 22.1 21.2917 22.1 21V3C22.1 2.70826 21.9841 2.42847 21.7778 2.22218C21.5715 2.01589 21.2917 1.9 21 1.9C20.7083 1.9 20.4285 2.01589 20.2222 2.22218C20.0159 2.42847 19.9 2.70826 19.9 3V21C19.9 21.2917 20.0159 21.5715 20.2222 21.7778C20.4285 21.9841 20.7083 22.1 21 22.1C21.2917 22.1 21.5715 21.9841 21.7778 21.7778Z" fill="#292D32" stroke="#FAFAFA" stroke-width="0.2"/>
            <rect x="0.75" y="12.75" width="4.5" height="10.5" rx="2.25" stroke="#292D32" stroke-width="1.5"/>
            </g>
            </g>
            <defs>
            <clipPath id="clip0_1163_17">
            <rect width="24" height="24" fill="white"/>
            </clipPath>
            <clipPath id="clip1_1163_17">
            <rect width="24" height="24" fill="white"/>
            </clipPath>
            </defs>
        </symbol>


        <symbol width="24" height="24" id="favourite" viewBox="0 0 24 23" fill="none">
            <rect width="24" height="23" fill="none"/>
            <g clip-path="url(#clip0_0_1)">
            <rect width="1920" height="5682" transform="translate(-1545 -50)" fill="none"/>
            <rect width="1920" height="123" transform="translate(-1545 -50)" fill="none"/>
            <circle cx="11.5" cy="11.5" r="24.5" fill="none"/>
            <g clip-path="url(#clip1_0_1)">
            <g clip-path="url(#clip2_0_1)">
            <mask id="path-2-inside-1_0_1" fill="none">
            <path d="M17.5 0.916992C16.374 0.934507 15.2725 1.24885 14.3068 1.82826C13.3411 2.40768 12.5454 3.23166 12 4.21699C11.4546 3.23166 10.6589 2.40768 9.69324 1.82826C8.72754 1.24885 7.62605 0.934507 6.5 0.916992C4.70494 0.994983 3.01371 1.78025 1.79579 3.10122C0.577864 4.4222 -0.0677465 6.17152 4.06709e-06 7.96699C4.06709e-06 12.514 4.786 17.48 8.8 20.847C9.69622 21.6001 10.8294 22.013 12 22.013C13.1706 22.013 14.3038 21.6001 15.2 20.847C19.214 17.48 24 12.514 24 7.96699C24.0678 6.17152 23.4221 4.4222 22.2042 3.10122C20.9863 1.78025 19.2951 0.994983 17.5 0.916992ZM13.915 19.317C13.379 19.7684 12.7008 20.0159 12 20.0159C11.2993 20.0159 10.621 19.7684 10.085 19.317C4.947 15.006 2 10.87 2 7.96699C1.93164 6.70171 2.36637 5.46072 3.20937 4.51469C4.05236 3.56866 5.23524 2.99434 6.5 2.91699C7.76477 2.99434 8.94764 3.56866 9.79064 4.51469C10.6336 5.46072 11.0684 6.70171 11 7.96699C11 8.23221 11.1054 8.48656 11.2929 8.6741C11.4804 8.86164 11.7348 8.96699 12 8.96699C12.2652 8.96699 12.5196 8.86164 12.7071 8.6741C12.8946 8.48656 13 8.23221 13 7.96699C12.9316 6.70171 13.3664 5.46072 14.2094 4.51469C15.0524 3.56866 16.2352 2.99434 17.5 2.91699C18.7648 2.99434 19.9476 3.56866 20.7906 4.51469C21.6336 5.46072 22.0684 6.70171 22 7.96699C22 10.87 19.053 15.006 13.915 19.313V19.317Z"/>
            </mask>
            <path d="M17.5 0.916992C16.374 0.934507 15.2725 1.24885 14.3068 1.82826C13.3411 2.40768 12.5454 3.23166 12 4.21699C11.4546 3.23166 10.6589 2.40768 9.69324 1.82826C8.72754 1.24885 7.62605 0.934507 6.5 0.916992C4.70494 0.994983 3.01371 1.78025 1.79579 3.10122C0.577864 4.4222 -0.0677465 6.17152 4.06709e-06 7.96699C4.06709e-06 12.514 4.786 17.48 8.8 20.847C9.69622 21.6001 10.8294 22.013 12 22.013C13.1706 22.013 14.3038 21.6001 15.2 20.847C19.214 17.48 24 12.514 24 7.96699C24.0678 6.17152 23.4221 4.4222 22.2042 3.10122C20.9863 1.78025 19.2951 0.994983 17.5 0.916992ZM13.915 19.317C13.379 19.7684 12.7008 20.0159 12 20.0159C11.2993 20.0159 10.621 19.7684 10.085 19.317C4.947 15.006 2 10.87 2 7.96699C1.93164 6.70171 2.36637 5.46072 3.20937 4.51469C4.05236 3.56866 5.23524 2.99434 6.5 2.91699C7.76477 2.99434 8.94764 3.56866 9.79064 4.51469C10.6336 5.46072 11.0684 6.70171 11 7.96699C11 8.23221 11.1054 8.48656 11.2929 8.6741C11.4804 8.86164 11.7348 8.96699 12 8.96699C12.2652 8.96699 12.5196 8.86164 12.7071 8.6741C12.8946 8.48656 13 8.23221 13 7.96699C12.9316 6.70171 13.3664 5.46072 14.2094 4.51469C15.0524 3.56866 16.2352 2.99434 17.5 2.91699C18.7648 2.99434 19.9476 3.56866 20.7906 4.51469C21.6336 5.46072 22.0684 6.70171 22 7.96699C22 10.87 19.053 15.006 13.915 19.313V19.317Z" fill="#292D32" stroke="none" stroke-width="0.6" mask="url(#path-2-inside-1_0_1)"/>
            </g>
            </g>
            </g>
            <defs>
            <clipPath id="clip0_0_1">
            <rect width="1920" height="5682" fill="none" transform="translate(-1545 -50)"/>
            </clipPath>
            <clipPath id="clip1_0_1">
            <rect width="24" height="24" fill="none" transform="translate(0 -1)"/>
            </clipPath>
            <clipPath id="clip2_0_1">
            <rect width="24" height="24" fill="none" transform="translate(0 -1)"/>
            </clipPath>
            </defs>
        </symbol>

        <symbol width="24" height="24" id="shoppingbag" viewBox="0 0 22 24">
            <path d="M16.1158 7.69568V5.55802C16.1158 4.8919 15.9846 4.2323 15.7297 3.61689C15.4748 3.00147 15.1011 2.44229 14.6301 1.97127C14.1591 1.50026 13.5999 1.12662 12.9845 0.871711C12.3691 0.616798 11.7095 0.485596 11.0434 0.485596C10.3773 0.485596 9.71766 0.616798 9.10224 0.871711C8.48683 1.12662 7.92765 1.50026 7.45663 1.97127C6.98561 2.44229 6.61198 3.00147 6.35707 3.61689C6.10215 4.2323 5.97095 4.8919 5.97095 5.55802V10.6304C5.97095 10.8226 6.0473 11.0069 6.18319 11.1428C6.31909 11.2787 6.5034 11.3551 6.69558 11.3551C6.88777 11.3551 7.07208 11.2787 7.20798 11.1428C7.34387 11.0069 7.42022 10.8226 7.42022 10.6304V9.14494H13.2173V7.69568H7.42022V5.55802C7.42022 4.5971 7.80194 3.67553 8.48141 2.99606C9.16089 2.31658 10.0825 1.93486 11.0434 1.93486C12.0043 1.93486 12.9259 2.31658 13.6053 2.99606C14.2848 3.67553 14.6665 4.5971 14.6665 5.55802V10.5942C14.6665 10.7864 14.7429 10.9707 14.8788 11.1066C15.0147 11.2425 15.199 11.3188 15.3912 11.3188C15.5833 11.3188 15.7677 11.2425 15.9036 11.1066C16.0395 10.9707 16.1158 10.7864 16.1158 10.5942V9.14494H19.739V22.1883H2.34779V9.14494H4.52169V7.69568H0.898529V22.2535C0.898529 22.6206 1.04435 22.9726 1.30391 23.2322C1.56347 23.4918 1.9155 23.6376 2.28258 23.6376H19.8042C20.1712 23.6376 20.5233 23.4918 20.7828 23.2322C21.0424 22.9726 21.1882 22.6206 21.1882 22.2535V7.69568H16.1158Z" fill="#292D32"/>
        </symbol>

        <symbol width="24" height="24" id="burger" viewBox="0 0 18 18" fill="none">
            <line x1="0.75" y1="1.25" x2="17.25" y2="1.25" stroke="#292D32" stroke-width="1.5" stroke-linecap="round"/>
            <line x1="0.75" y1="9.25" x2="17.25" y2="9.25" stroke="#292D32" stroke-width="1.5" stroke-linecap="round"/>
            <line x1="0.75" y1="17.25" x2="17.25" y2="17.25" stroke="#292D32" stroke-width="1.5" stroke-linecap="round"/>
        </symbol>

        <symbol width="24" height="24" id="cross" viewBox="0 0 15 15" fill="none">
            <line x1="13.3034" y1="13.364" x2="1.63609" y2="1.69675" stroke="#292D32" stroke-width="1.5" stroke-linecap="round"/>
            <line x1="1.63599" y1="13.3034" x2="13.3032" y2="1.63609" stroke="#292D32" stroke-width="1.5" stroke-linecap="round"/>
        </symbol>

        <symbol width="12" height="11" id="follow" viewBox="0 0 12 11" fill="none">
            <path d="M4.70806 1.63029L6.22623 0.0933748L11.5305 5.3976L6.22623 10.7018L4.70806 9.18366L7.40703 6.46595H0.97823V4.31052H7.40703L4.70806 1.63029Z" fill="white"/>
        </symbol>

        <symbol width="25" height="39" id="mouse" viewBox="0 0 25 39" fill="none">
            <path fill-rule="evenodd" clip-rule="evenodd" d="M23 13V26.5C23 32.299 18.299 37 12.5 37C6.70101 37 2 32.299 2 26.5V13C2 7.20101 6.70101 2.5 12.5 2.5C18.299 2.5 23 7.20101 23 13ZM0 13C0 6.09644 5.59644 0.5 12.5 0.5C19.4036 0.5 25 6.09644 25 13V26.5C25 33.4036 19.4036 39 12.5 39C5.59644 39 0 33.4036 0 26.5V13ZM11.5 20.5V29.5L13.5 29.5V20.5H11.5Z" fill="#33A9FF"/>
        </symbol>

        <symbol width="106" height="23" id="next" viewBox="0 0 106 23" fill="none" >
            <path d="M94 1L104.5 11.5M104.5 11.5L94 22M104.5 11.5H0" stroke="#292D32" stroke-width="1.5"/>
        </symbol>


    </defs>
</svg>